<svg width="420" height="320" viewBox="0 0 420 320" fill="none" xmlns="http://www.w3.org/2000/svg">
  <defs>
    <linearGradient id="faceMint" x1="140" y1="60" x2="300" y2="260" gradientUnits="userSpaceOnUse">
      <stop stop-color="#F6FFFE" />
      <stop offset="1" stop-color="#EAF7FF" />
    </linearGradient>
    <linearGradient id="rainbow" x1="160" y1="40" x2="260" y2="80" gradientUnits="userSpaceOnUse">
      <stop stop-color="#FBC02D" />
      <stop offset="0.25" stop-color="#FF7AA0" />
      <stop offset="0.5" stop-color="#7ED957" />
      <stop offset="0.75" stop-color="#6BD8FF" />
      <stop offset="1" stop-color="#C39BFF" />
    </linearGradient>
  </defs>
  <rect width="420" height="320" fill="none" />
  <g stroke="#2C1D21" stroke-width="6" stroke-linecap="round" stroke-linejoin="round">
    <path d="M98 134c0-44 32-90 62-110 20 14 64 14 84 0 30 20 62 66 62 110 0 68-54 126-104 126S98 202 98 134Z" fill="url(#faceMint)" />
    <path d="M128 54c-6-8-22-8-30 0l-28 40c-6 8-2 20 8 22l20 4" fill="#E6F4FF" />
    <path d="M292 54c6-8 22-8 30 0l28 40c6 8 2 20-8 22l-20 4" fill="#E6F4FF" />
    <path d="M140 112c26-18 56-30 80-30s54 12 80 30" fill="url(#rainbow)" />
    <path d="M210 240c-14 0-24-8-24-14 0-6 6-10 14-6 6 4 14 4 20 0 8-4 14 0 14 6 0 6-10 14-24 14Z" fill="#2C1D21" />
    <circle cx="164" cy="164" r="34" fill="#6FD3D0" />
    <circle cx="256" cy="164" r="34" fill="#6FD3D0" />
    <circle cx="164" cy="164" r="16" fill="#F0FFFF" />
    <circle cx="256" cy="164" r="16" fill="#F0FFFF" />
    <circle cx="176" cy="162" r="8" fill="#fff" />
    <circle cx="268" cy="162" r="8" fill="#fff" />
    <circle cx="208" cy="190" r="10" fill="#F67EA5" />
    <path d="M204 190c0 10-16 18-26 18" />
    <path d="M214 190c0 10 16 18 26 18" />
    <circle cx="168" cy="200" r="12" fill="#FFB5C5" />
    <circle cx="252" cy="200" r="12" fill="#FFB5C5" />
    <path d="M146 204c-12-4-22-14-24-28" />
    <path d="M274 204c12-4 22-14 24-28" />
  </g>
</svg>
