<svg width="420" height="320" viewBox="0 0 420 320" fill="none" xmlns="http://www.w3.org/2000/svg">
  <defs>
    <linearGradient id="faceBase" x1="120" y1="60" x2="320" y2="260" gradientUnits="userSpaceOnUse">
      <stop stop-color="#FFF9F1" />
      <stop offset="1" stop-color="#FFF3E6" />
    </linearGradient>
  </defs>
  <rect width="420" height="320" fill="none" />
  <g stroke="#2C1D21" stroke-width="6" stroke-linecap="round" stroke-linejoin="round">
    <path d="M98 132c0-42 32-90 62-110 20 14 64 14 84 0 30 20 62 68 62 110 0 68-54 126-104 126S98 200 98 132Z" fill="url(#faceBase)" />
    <path d="M128 54c-6-8-22-8-30 0l-28 40c-6 8-2 20 8 22l20 4" fill="#F7C49D" />
    <path d="M292 54c6-8 22-8 30 0l28 40c6 8 2 20-8 22l-20 4" fill="#9ED7D6" />
    <path d="M210 238c-14 0-24-8-24-14 0-6 6-10 14-6 6 4 14 4 20 0 8-4 14 0 14 6 0 6-10 14-24 14Z" fill="#2C1D21" />
    <circle cx="164" cy="158" r="34" fill="#6FD3D0" />
    <circle cx="256" cy="158" r="34" fill="#6FD3D0" />
    <circle cx="164" cy="158" r="16" fill="#F0FFFF" />
    <circle cx="256" cy="158" r="16" fill="#F0FFFF" />
    <circle cx="176" cy="156" r="8" fill="#fff" />
    <circle cx="268" cy="156" r="8" fill="#fff" />
    <circle cx="208" cy="182" r="10" fill="#F67EA5" />
    <path d="M204 182c0 10-16 18-26 18" />
    <path d="M214 182c0 10 16 18 26 18" />
    <path d="M142 194c-14-4-24-14-26-28" />
    <path d="M278 194c14-4 24-14 26-28" />
    <circle cx="168" cy="194" r="12" fill="#FFB5C5" />
    <circle cx="252" cy="194" r="12" fill="#FFB5C5" />
  </g>
  <g stroke="#2C1D21" stroke-width="6" stroke-linecap="round" stroke-linejoin="round">
    <path d="M120 120c0-22 24-46 60-58-6 46-28 62-60 64Z" fill="#F7C49D" />
    <path d="M300 120c0-22-24-46-60-58 6 46 28 62 60 64Z" fill="#9ED7D6" />
  </g>
</svg>
