<svg width="480" height="620" viewBox="0 0 480 620" fill="none" xmlns="http://www.w3.org/2000/svg">
  <defs>
    <linearGradient id="bodySplit" x1="120" y1="200" x2="360" y2="480" gradientUnits="userSpaceOnUse">
      <stop stop-color="#F7C49D" />
      <stop offset="0.55" stop-color="#F4CBAE" />
      <stop offset="1" stop-color="#9ED7D6" />
    </linearGradient>
    <linearGradient id="tailStripe" x1="0" y1="0" x2="1" y2="0">
      <stop stop-color="#F7C49D" />
      <stop offset="1" stop-color="#9ED7D6" />
    </linearGradient>
  </defs>
  <rect width="480" height="620" fill="none" />
  <g stroke="#2C1D21" stroke-width="6" stroke-linecap="round" stroke-linejoin="round">
    <ellipse cx="240" cy="330" rx="130" ry="186" fill="url(#bodySplit)" />
    <ellipse cx="240" cy="338" rx="96" ry="126" fill="#FFFDF8" />

    <ellipse cx="166" cy="398" rx="58" ry="66" fill="url(#bodySplit)" />
    <ellipse cx="314" cy="398" rx="58" ry="66" fill="url(#bodySplit)" />

    <ellipse cx="134" cy="312" rx="50" ry="60" fill="url(#bodySplit)" />
    <ellipse cx="346" cy="312" rx="50" ry="60" fill="url(#bodySplit)" />

    <path d="M356 400c38 10 70 36 90 70-12 18-32 28-58 20-28-9-46-40-32-68" fill="url(#tailStripe)" />

    <g stroke="none" fill="#F598A6">
      <circle cx="166" cy="438" r="13" />
      <circle cx="146" cy="422" r="9" />
      <circle cx="166" cy="414" r="9" />
      <circle cx="186" cy="422" r="9" />

      <circle cx="314" cy="438" r="13" />
      <circle cx="294" cy="422" r="9" />
      <circle cx="314" cy="414" r="9" />
      <circle cx="334" cy="422" r="9" />

      <circle cx="134" cy="342" r="8" />
      <circle cx="118" cy="328" r="6" />
      <circle cx="134" cy="320" r="6" />
      <circle cx="150" cy="328" r="6" />

      <circle cx="346" cy="342" r="8" />
      <circle cx="330" cy="328" r="6" />
      <circle cx="346" cy="320" r="6" />
      <circle cx="362" cy="328" r="6" />
    </g>
  </g>
</svg>
